<svg width="1280" height="720" xmlns="http://www.w3.org/2000/svg" xmlns:xlink="http://www.w3.org/1999/xlink" overflow="hidden"><defs><clipPath id="clip0"><rect x="343" y="296" width="61" height="48"/></clipPath><clipPath id="clip1"><rect x="343" y="296" width="61" height="48"/></clipPath><clipPath id="clip2"><rect x="343" y="296" width="61" height="48"/></clipPath></defs><g><rect x="0" y="0" width="1280" height="720" fill="#FFFFFF"/><g clip-path="url(#clip0)"><g clip-path="url(#clip1)"><g clip-path="url(#clip2)"><path d="M0.529154 46.4816C-0.554521 44.4567 0.126775 36.3951 1.66133 33.0848 9.07091 17.1012 31.4788 17.0417 39.1402 32.9853 40.2986 35.3962 40.5907 36.8154 40.7564 40.8389 40.9707 46.0389 40.3829 47.9332 38.7497 47.3065 38.0971 47.0561 37.9517 46.0949 37.9833 42.2382 38.0169 38.1226 37.8368 37.082 36.6515 34.545 35.8977 32.9315 34.3289 30.5785 33.1654 29.3163 28.329 24.0694 19.8325 22.4749 13.09 25.5489 9.2446 27.3021 6.19315 30.4089 4.25422 34.545 3.06797 37.0755 2.87892 38.1529 2.87892 42.3823 2.87892 46.5664 2.7513 47.3106 2.00914 47.4538 1.52128 47.548 0.871421 47.1211 0.529154 46.4815ZM58.6742 43.0281C58.3599 42.8119 58.1377 40.9785 58.1573 38.7712 58.1868 35.5265 57.9562 34.4127 56.7434 31.9434 54.3153 26.9989 49.7762 24.2745 44.0406 24.3193 42.4415 24.331 40.218 24.668 39.0996 25.0665 36.8011 25.8854 36.2222 25.7189 36.2222 24.2397 36.2222 21.4899 45.9634 20.458 50.9552 22.6791 54.2104 24.1275 57.6274 27.4129 59.3582 30.7585 61.5051 34.9087 61.6353 43.4667 59.551 43.4158 59.3721 43.4119 58.9782 43.2371 58.6742 43.0281ZM40.7412 18.4942C38.8284 17.3855 36.7391 14.1137 36.7391 12.2269 36.7391 10.6721 38.1278 7.94634 39.6294 6.55404 42.376 4.00717 46.3084 4.10338 49.0507 6.78454 52.7728 10.4235 52.2336 15.8121 47.893 18.3558 45.2038 19.9318 43.2855 19.9689 40.7412 18.4942ZM47.36 15.2734C50.1478 12.4857 48.1813 7.75419 44.2349 7.75419 40.2884 7.75419 38.3219 12.4857 41.1097 15.2734 41.9857 16.1495 42.9532 16.5423 44.2349 16.5423 45.5165 16.5423 46.484 16.1495 47.36 15.2734ZM18.4207 18.5032C14.2813 17.6208 10.9143 13.495 10.9143 9.30509 10.9143 4.32841 15.3524 0 20.4552 0 25.558 0 29.996 4.32841 29.996 9.30509 29.996 15.1362 24.2065 19.7367 18.4207 18.5032ZM23.2784 15.2603C25.7299 13.9927 26.9171 12.0496 26.9171 9.30509 26.9171 6.5606 25.7299 4.61751 23.2784 3.34983 18.9995 1.13711 13.9933 4.3235 13.9933 9.2598 13.9933 14.2705 18.9714 17.4876 23.2784 15.2603Z" fill="#215F9A" transform="matrix(1 0 0 1.00927 343 296)"/></g></g></g><text fill="#215F9A" font-family="Arial Black,Arial Black_MSFontService,sans-serif" font-weight="900" font-size="33" transform="translate(408.714 320)">SUHEC</text><text fill="#163E64" font-family="Bahnschrift Condensed,Bahnschrift Condensed_MSFontService,sans-serif" font-weight="400" font-stretch="condensed" font-size="13" transform="translate(408.714 342)">SURNAME</text><text fill="#163E64" font-family="Bahnschrift Condensed,Bahnschrift Condensed_MSFontService,sans-serif" font-weight="400" font-stretch="condensed" font-size="13" transform="translate(450.048 342)"></text><text fill="#163E64" font-family="Bahnschrift Condensed,Bahnschrift Condensed_MSFontService,sans-serif" font-weight="400" font-stretch="condensed" font-size="13" transform="translate(452.714 342)">HERITAGE</text><text fill="#163E64" font-family="Bahnschrift Condensed,Bahnschrift Condensed_MSFontService,sans-serif" font-weight="400" font-stretch="condensed" font-size="13" transform="translate(493.214 342)"></text><text fill="#163E64" font-family="Bahnschrift Condensed,Bahnschrift Condensed_MSFontService,sans-serif" font-weight="400" font-stretch="condensed" font-size="13" transform="translate(495.881 342)">CLASSIFIE</text><text fill="#163E64" font-family="Bahnschrift Condensed,Bahnschrift Condensed_MSFontService,sans-serif" font-weight="400" font-stretch="condensed" font-size="13" transform="translate(538.381 342)">R</text><text fill="#163E64" font-family="Bahnschrift Condensed,Bahnschrift Condensed_MSFontService,sans-serif" font-weight="400" font-stretch="condensed" font-size="13" transform="translate(544.381 342)"></text></g></svg>